<svg width="54" height="40" viewBox="0 0 54 40" fill="none" xmlns="http://www.w3.org/2000/svg">
<g opacity="0.5">
<path fill-rule="evenodd" clip-rule="evenodd" d="M53.5934 10.2761L51.9616 0L41.2435 2.32752L45.91 5.33094L37.5121 14.1617L42.6093 22.9568L30 29.9996V32.9996L48.342 24.8902L42.4625 14.7453L49.3252 7.52901L53.5934 10.2761Z" fill="white"/>
</g>
<path fill-rule="evenodd" clip-rule="evenodd" d="M15.288 9.99406L14.449 7.04227C14.4326 6.97353 14.401 6.90931 14.3567 6.85429C14.3123 6.79927 14.2562 6.75484 14.1924 6.72424C14.1287 6.69363 14.0589 6.67762 13.9882 6.67737C13.9175 6.67713 13.8476 6.69264 13.7837 6.7228C10.6704 8.08378 8.08897 10.4262 6.4338 13.3921C4.77864 16.358 4.14082 19.7842 4.61783 23.147C4.62623 23.217 4.65004 23.2843 4.68754 23.3441C4.72503 23.4038 4.77528 23.4545 4.8347 23.4925C4.89411 23.5306 4.96121 23.555 5.03117 23.5641C5.10114 23.5731 5.17224 23.5666 5.23938 23.545L8.19535 22.7065C8.34118 22.6583 8.46648 22.5624 8.55099 22.4342C8.63549 22.3061 8.67426 22.1531 8.66102 22.0002C8.44995 19.7096 8.93673 17.409 10.0575 15.4002C11.1782 13.3915 12.8806 11.7685 14.9411 10.7442C15.0737 10.6751 15.1797 10.564 15.2425 10.4283C15.3053 10.2926 15.3213 10.1399 15.288 9.99406ZM30.9963 16.2364L33.9523 15.3979C34.0205 15.3807 34.0841 15.3486 34.1386 15.3041C34.1931 15.2596 34.2371 15.2036 34.2676 15.1402C34.2981 15.0768 34.3142 15.0075 34.315 14.9371C34.3157 14.8668 34.3009 14.7971 34.2718 14.7331C32.9066 11.6277 30.5633 9.05312 27.599 7.40141C24.6346 5.7497 21.2116 5.1114 17.8512 5.58375C17.7809 5.59165 17.7133 5.61514 17.6533 5.65247C17.5933 5.6898 17.5423 5.74005 17.5042 5.79955C17.4661 5.85905 17.4417 5.9263 17.4329 5.99642C17.4241 6.06653 17.431 6.13773 17.4532 6.20483L18.2922 9.15662C18.3396 9.30293 18.4354 9.42877 18.5639 9.51341C18.6924 9.59804 18.8459 9.63639 18.9991 9.62219C21.291 9.41187 23.5931 9.89902 25.6034 11.0197C27.6136 12.1403 29.2381 13.8421 30.2635 15.9016C30.334 16.0282 30.4431 16.129 30.575 16.1892C30.7068 16.2494 30.8544 16.266 30.9963 16.2364ZM25.6045 34.8852L24.7647 31.9307C24.7312 31.787 24.7457 31.6362 24.806 31.5015C24.8662 31.3667 24.9689 31.2553 25.0983 31.1843C27.1588 30.1601 28.8612 28.5371 29.9819 26.5284C31.1027 24.5196 31.5895 22.2189 31.3784 19.9284C31.3647 19.7753 31.4032 19.6222 31.4878 19.4939C31.5724 19.3656 31.698 19.2698 31.8441 19.2221L34.8133 18.3798C34.8805 18.3587 34.9514 18.3526 35.0212 18.3619C35.091 18.3711 35.1579 18.3956 35.2172 18.4336C35.2765 18.4715 35.3267 18.522 35.3643 18.5815C35.4019 18.641 35.426 18.7079 35.4349 18.7777C35.911 22.1405 35.2727 25.5663 33.6177 28.532C31.9626 31.4977 29.3817 33.8403 26.269 35.202C26.2053 35.232 26.1357 35.2475 26.0652 35.2474C25.9948 35.2472 25.9252 35.2314 25.8616 35.2011C25.798 35.1708 25.7419 35.1267 25.6975 35.0721C25.653 35.0174 25.6212 34.9536 25.6045 34.8852ZM9.04895 25.6918L6.09297 26.5303C6.02447 26.5472 5.96054 26.5789 5.90579 26.6234C5.85103 26.6678 5.8068 26.7238 5.77626 26.7874C5.74572 26.8509 5.72964 26.9205 5.72917 26.991C5.72869 27.0615 5.74383 27.1312 5.7735 27.1952C7.13679 30.3067 9.48185 32.8868 12.4503 34.5411C15.4187 36.1955 18.8472 36.8332 22.2119 36.3567C22.2819 36.3488 22.3493 36.3255 22.4092 36.2883C22.469 36.2512 22.5199 36.2012 22.5581 36.142C22.5962 36.0828 22.6207 36.0159 22.6298 35.9461C22.6389 35.8763 22.6324 35.8053 22.6106 35.7383L21.7709 32.7838C21.7235 32.6375 21.6277 32.5117 21.4992 32.427C21.3707 32.3424 21.2172 32.304 21.064 32.3182C18.7721 32.5286 16.47 32.0414 14.4597 30.9208C12.4495 29.8001 10.8251 28.0984 9.79963 26.0388C9.72971 25.9069 9.61841 25.8015 9.48281 25.7388C9.34721 25.6761 9.1948 25.6596 9.04895 25.6918ZM12.7816 16.9231C13.8522 15.0041 15.6419 13.5889 17.757 12.989C19.872 12.3891 22.1391 12.6535 24.0596 13.7241C25.98 14.7946 27.3964 16.5837 27.9973 18.6976C28.5982 20.8115 28.3343 23.0772 27.2636 24.9962C26.1929 26.9152 24.4032 28.3304 22.2882 28.9303C20.1731 29.5302 17.906 29.2658 15.9856 28.1953C14.0652 27.1247 12.6487 25.3357 12.0478 23.2217C11.4469 21.1078 11.7109 18.8421 12.7816 16.9231ZM18.0041 24.5775C18.9643 25.1128 20.0978 25.2449 21.1554 24.945L21.1569 24.9503C21.6809 24.8016 22.1705 24.5512 22.5976 24.2133C23.0247 23.8753 23.381 23.4565 23.6459 22.9809C23.9109 22.5052 24.0795 21.9819 24.1419 21.4411C24.2044 20.9002 24.1595 20.3522 24.0099 19.8286C23.7095 18.7717 23.0013 17.8771 22.0411 17.3419C21.0808 16.8066 19.9473 16.6744 18.8898 16.9743C17.8323 17.2743 16.9374 17.9819 16.4021 18.9414C15.8667 19.9009 15.7348 21.0337 16.0352 22.0907C16.3356 23.1477 17.0439 24.0422 18.0041 24.5775Z" fill="white"/>
</svg>
