<svg width="35" height="67" viewBox="0 0 35 67" fill="none" xmlns="http://www.w3.org/2000/svg">
<path d="M26.9138 31.4439C26.9138 27.5 23.9943 24.5165 20.122 23.3934C18.0285 22.7851 15.8466 22.4807 13.7253 21.9625C11.5009 21.4173 9.9646 20.0603 9.08312 17.9792C8.36709 16.2887 7.93788 14.5768 8.27609 12.7297C8.72069 10.3217 10.1124 8.69012 12.4814 7.9193C13.5989 7.55396 14.7626 7.30356 15.9215 7.08659C17.9922 6.70188 19.0417 5.50573 19.0215 3.43199C19.0152 2.91871 18.9563 2.4035 18.9842 1.89236C19.0724 0.276758 19.9277 -0.21371 21.4556 0.452917C24.567 1.81372 26.5375 5.50377 25.8686 8.73587C25.4236 10.8923 23.8814 12.074 21.9371 12.8858C21.5755 13.0365 21.2059 13.1822 20.8279 13.287C19.8855 13.5423 19.2598 14.0736 19.2194 15.0701C19.1767 16.105 19.8757 16.6201 20.7693 16.8889C23.3864 17.6782 25.8642 18.7028 28.0109 20.4271C35.7594 26.6466 36.2837 38.0573 28.5699 45.2105C28.0126 45.7281 27.5171 45.9216 26.9138 45.259C24.2227 42.3094 20.7425 40.9377 16.789 40.714C13.3916 40.522 10.8454 37.1419 10.6319 34.76C10.5343 33.6754 10.902 32.5158 11.2392 31.4439C11.5054 30.5987 11.9925 29.7278 11.0818 29.128C10.1153 28.4905 9.00383 28.925 8.62254 29.8358C8.02624 31.2548 7.51593 32.814 7.47654 34.3289C7.37019 38.3344 11.3007 42.9194 16.5345 43.805C17.9148 44.0396 19.3028 44.2511 20.6707 44.5449C23.9427 45.2467 25.4099 47.6312 26.1193 50.4999C26.7704 53.1255 26.5237 55.7723 24.087 57.4655C22.7185 58.4166 20.9611 59.0028 19.2899 59.3261C16.4179 59.8798 15.5025 60.8382 15.5248 63.7332C15.5323 64.5597 15.3751 65.7038 14.8248 66.1495C13.9459 66.8559 12.9383 66.0956 12.1043 65.5206C10.1094 64.1461 8.79732 62.3885 8.64843 59.9082C8.45637 56.6995 9.62662 54.8319 12.6962 53.6341C13.0632 53.491 13.4465 53.3939 13.8162 53.2585C15.552 52.6238 15.8969 50.8844 14.4344 49.7549C13.8016 49.2647 12.9967 48.928 12.2168 48.686C0.0862024 44.8843 -3.58571 30.2317 5.36349 21.3667C6.22745 20.5117 6.80273 20.3865 7.6864 21.3562C10.3001 24.2273 13.704 25.5999 17.573 25.8066C21.2523 26.0029 24.1059 29.754 24.019 32.7659C23.9947 33.5799 23.5912 34.3985 23.2768 35.1827C22.9446 36.0158 22.5604 36.9009 23.5052 37.4823C24.5056 38.0963 25.5192 37.627 25.9611 36.7232C26.2105 36.2133 26.9138 35.3878 26.9138 31.4439Z" fill="white"/>
</svg>
