<svg width="18" height="22" viewBox="0 0 18 22" fill="none" xmlns="http://www.w3.org/2000/svg">
<path d="M11.6 22C6.59671 20.1832 3.15161 16.9156 1.87605 11.6021C1.59736 11.6971 1.35264 11.8001 1.09893 11.8621C0.321807 12.0511 -0.109704 11.6591 0.0241441 10.8692C0.152998 10.1083 0.620469 9.53536 1.18483 9.05642C1.46052 8.82344 1.53444 8.58947 1.52644 8.24551C1.46052 5.39282 2.47337 3.00908 4.80074 1.32026C8.23685 -1.17146 12.8766 -0.0175905 14.9772 3.78299C15.7184 5.12285 16.102 6.55569 16.047 8.08952C16.035 8.42149 16.1938 8.56947 16.4036 8.78245C16.9001 9.28339 17.3855 9.81233 17.7741 10.3963C18.0278 10.7772 18.1297 11.3072 17.7471 11.6991C17.3755 12.0801 16.912 11.9091 16.4855 11.7451C16.3027 11.6751 16.1299 11.5821 15.9591 11.5021C15.9192 11.5361 15.8772 11.5541 15.8722 11.5791C15.4347 13.6899 14.1661 15.3427 12.9126 17.0075C12.533 17.5105 12.1854 18.0434 11.8757 18.5924C11.2674 19.6663 11.1785 20.7971 11.6 22ZM10.4503 10.8112C10.3435 9.60136 9.98188 8.73545 9.11686 8.19751C8.83118 8.02053 8.38369 7.95954 8.05306 8.03553C7.62055 8.13552 7.50468 8.58547 7.50168 9.00342C7.49269 10.0173 7.89824 10.8442 8.69733 11.4642C9.05493 11.7421 9.51141 11.9401 9.89298 11.6501C10.1876 11.4282 10.3295 11.0042 10.4503 10.8112ZM7.01124 3.735C6.97228 3.63501 6.87839 3.40004 6.78549 3.16406C6.58772 3.33704 6.32302 3.47403 6.20215 3.69C5.7167 4.56091 5.47698 5.5108 5.48996 6.5087C5.49296 6.70667 5.65777 6.90265 5.74867 7.09863C5.90749 6.96764 6.11625 6.86666 6.21514 6.69967C6.72856 5.84077 6.94631 4.88987 7.01124 3.735ZM10.1427 3.02508C10.0488 3.29205 9.95691 3.44003 9.94991 3.59301C9.89797 4.75389 10.1866 5.83377 10.795 6.81966C10.8749 6.94865 11.0776 7.00064 11.2235 7.08863C11.2964 6.92965 11.4262 6.77367 11.4312 6.61268C11.4662 5.48881 11.1825 4.43892 10.6092 3.47403C10.5223 3.33004 10.3595 3.23005 10.1427 3.02508Z" fill="white"/>
</svg>
