<svg width="16" height="17" viewBox="0 0 16 17" fill="none" xmlns="http://www.w3.org/2000/svg">
<path d="M15.4013 4.18457C15.5706 4.52244 15.7564 4.85302 15.9017 5.20183C15.9538 5.32676 15.9275 5.49963 15.9022 5.64461C15.5144 7.8914 14.68 9.96532 13.6037 11.9428C13.3359 12.4347 13.0371 12.9078 12.7705 13.3998C12.6562 13.6109 12.5438 13.6017 12.3732 13.4877C11.8031 13.1074 11.7955 13.1068 12.1324 12.5117C13.5896 9.93859 14.6701 7.21079 15.3017 4.29739C15.3093 4.26221 15.3193 4.22825 15.3286 4.19306C15.3526 4.19064 15.3767 4.1876 15.4013 4.18457Z" fill="#FFEFD7"/>
<path d="M5.19063 16.5249C6.06191 16.2944 6.94313 16.0973 7.80267 15.8267C9.05189 15.4331 10.1856 14.7931 11.2145 13.956C11.2942 13.8917 11.4612 13.8238 11.5127 13.8632C11.6786 13.99 11.8151 14.1605 11.944 14.3297C11.9592 14.3497 11.8713 14.4844 11.8081 14.5353C10.3755 15.686 8.77239 16.4115 6.95075 16.5455C6.36423 16.5886 5.77244 16.5522 5.18359 16.5522C5.18595 16.5425 5.18827 16.5334 5.19063 16.5249Z" fill="#FFEFD7"/>
<path fill-rule="evenodd" clip-rule="evenodd" d="M8.48467 0.102339C8.52703 0.178983 8.56952 0.255966 8.59996 0.337866C9.25499 2.09695 10.5347 3.08264 12.2755 3.43931C12.7235 3.53125 13.1843 3.55472 13.6452 3.57819C13.8563 3.58894 14.0675 3.5997 14.2776 3.61704C14.3585 3.62377 14.4395 3.63005 14.5536 3.63891L14.6156 3.64373C14.5709 3.84493 14.5291 4.04343 14.4876 4.23972C14.4003 4.65351 14.3151 5.05754 14.2101 5.45622C13.544 7.98141 12.511 10.3398 11.1997 12.5756C10.8768 13.1258 10.4233 13.5007 9.91651 13.8288C8.22143 14.9274 6.35996 15.523 4.39242 15.8342C3.93189 15.907 3.63775 15.7572 3.32838 15.463C2.11025 14.3044 1.09777 12.9815 0.29916 11.482C0.101704 11.1114 0.00619831 10.7231 0.00151092 10.2967C-0.0324726 7.13281 0.509507 4.06045 1.35499 1.03544C1.43878 0.73457 1.55304 0.672093 1.79619 0.789768C3.90611 1.80822 5.92051 1.52191 7.86872 0.319062C7.94072 0.274678 8.01234 0.229601 8.084 0.184494C8.16215 0.1353 8.24046 0.0860122 8.31928 0.037608C8.33444 0.0277964 8.35208 0.0228095 8.37815 0.0154182C8.39238 0.0113857 8.40918 0.00663763 8.42943 0C8.44707 0.034322 8.46585 0.0682999 8.48467 0.102339Z" fill="#FFEFD7"/>
</svg>
