<svg width="36" height="34" viewBox="0 0 36 34" fill="none" xmlns="http://www.w3.org/2000/svg">
<path fill-rule="evenodd" clip-rule="evenodd" d="M18.3924 0.395191C18.105 -0.131731 17.3484 -0.13173 17.0611 0.395192L11.8478 9.95437C11.7387 10.1543 11.5456 10.2947 11.3217 10.3366L0.619359 12.3408C0.0294255 12.4513 -0.204376 13.1708 0.207955 13.607L7.68828 21.519C7.84476 21.6845 7.91855 21.9116 7.88924 22.1375L6.48812 32.9353C6.41089 33.5305 7.02299 33.9752 7.5652 33.7179L17.4016 29.0486C17.6073 28.9509 17.8461 28.9509 18.0519 29.0486L27.8883 33.7179C28.4305 33.9752 29.0426 33.5305 28.9653 32.9353L27.5642 22.1375C27.5349 21.9116 27.6087 21.6845 27.7652 21.519L35.2455 13.607C35.6578 13.1708 35.424 12.4513 34.8341 12.3408L24.1318 10.3366C23.9079 10.2947 23.7147 10.1543 23.6057 9.95437L18.3924 0.395191ZM17.015 5.80864C17.2584 5.14644 18.195 5.14644 18.4384 5.80864L20.695 11.9481C20.6889 12.0059 20.6938 12.0662 20.7115 12.1266L22.6658 18.8112C22.7622 19.1407 23.1708 19.255 23.4241 19.0233L25.3611 17.2519C25.4805 17.1427 25.5344 16.9791 25.5032 16.8203L24.8815 13.6519H29.8559C30.5707 13.6519 30.8885 14.5504 30.3326 14.9997L24.8925 19.3977C24.818 19.409 24.7447 19.4389 24.6794 19.4893L19.1659 23.7444C18.8941 23.9541 18.9365 24.3763 19.2446 24.5278L21.5998 25.6865C21.7451 25.7579 21.917 25.7485 22.0536 25.6616L24.5615 24.0662L25.914 28.8153C26.1097 29.5022 25.3338 30.0539 24.7492 29.6436L18.1635 25.021C18.0746 24.9587 17.9757 24.9175 17.8735 24.8975L13.3228 21.8136C13.0346 21.6183 12.6421 21.7982 12.6018 22.1439L12.3004 24.7316C12.2817 24.8923 12.3481 25.0512 12.4757 25.1508L14.6748 26.868L10.743 29.6424C10.1599 30.0538 9.38312 29.5053 9.57575 28.8182L11.5635 21.7276C11.5753 21.7064 11.5848 21.6833 11.5914 21.6586L13.3379 15.1607C13.3945 14.9502 13.2172 14.7505 13.0014 14.7818L10.1019 15.2029C9.98872 15.2194 9.89442 15.2981 9.85799 15.4065L8.93633 18.149L5.16521 15.1824C4.60563 14.7422 4.90647 13.8432 5.61829 13.8284L13.1772 13.6717C13.1998 13.6745 13.2229 13.6756 13.2463 13.675L19.3083 13.5178C19.6381 13.5092 19.8538 13.1688 19.7207 12.8669L18.6217 10.3739C18.5475 10.2056 18.3811 10.0971 18.1972 10.0971H15.4388L17.015 5.80864Z" fill="white"/>
</svg>
