<svg width="38" height="39" viewBox="0 0 38 39" fill="none" xmlns="http://www.w3.org/2000/svg">
<g clip-path="url(#clip0_15592_51)">
<path d="M36.5751 9.60059C36.9773 10.3757 37.4184 11.1341 37.7635 11.9343C37.8874 12.2209 37.8248 12.6175 37.7649 12.9501C36.8437 18.1045 34.8621 22.8623 32.3058 27.3988C31.6699 28.5273 30.9602 29.6128 30.327 30.7413C30.0556 31.2256 29.7885 31.2047 29.3835 30.9431C28.0295 30.0706 28.0114 30.0692 28.8116 28.7041C32.2724 22.801 34.8385 16.5431 36.3386 9.85942C36.3567 9.77871 36.3803 9.70079 36.4026 9.62007C36.4596 9.61451 36.5167 9.60755 36.5751 9.60059Z" fill="white"/>
<path d="M12.3243 37.9094C14.3936 37.3806 16.4865 36.9283 18.5279 36.3077C21.4948 35.4046 24.1874 33.9365 26.631 32.0161C26.8203 31.8686 27.2169 31.7127 27.3393 31.8032C27.7332 32.094 28.0574 32.4851 28.3635 32.8733C28.3997 32.9192 28.191 33.2282 28.0407 33.345C24.6383 35.9849 20.831 37.6492 16.5046 37.9567C15.1116 38.0555 13.7061 37.972 12.3076 37.972C12.3132 37.9498 12.3187 37.9289 12.3243 37.9094Z" fill="white"/>
<path fill-rule="evenodd" clip-rule="evenodd" d="M20.1511 0.234778L20.1511 0.234837C20.2517 0.410668 20.3526 0.587215 20.4249 0.775104C21.9806 4.81065 25.0198 7.07195 29.1542 7.89019C30.2183 8.10111 31.3126 8.15494 32.4073 8.20879C32.9088 8.23346 33.4104 8.25814 33.9092 8.29792C34.1015 8.31335 34.2937 8.32777 34.5647 8.34809L34.5652 8.34813L34.7121 8.35915C34.606 8.82073 34.5065 9.27611 34.4081 9.72641L34.4081 9.72661C34.2007 10.6759 33.9983 11.6026 33.7491 12.5172C32.1669 18.3103 29.7136 23.7207 26.5992 28.85C25.8325 30.1122 24.7554 30.9721 23.5517 31.725C19.5259 34.2451 15.1049 35.6116 10.432 36.3255C9.33823 36.4925 8.63966 36.1488 7.90491 35.4739C5.01184 32.816 2.60721 29.781 0.710505 26.341C0.241547 25.4908 0.014721 24.6001 0.00358843 23.6219C-0.0771225 16.3635 1.21008 9.31516 3.21811 2.37541C3.41711 1.68519 3.68846 1.54186 4.26596 1.81182C9.277 4.14827 14.0612 3.49145 18.6882 0.731965C18.8592 0.630144 19.0293 0.526732 19.1995 0.42325L19.1997 0.423114C19.3853 0.310259 19.5711 0.197322 19.7583 0.0862772C19.7943 0.0637683 19.8362 0.0523276 19.8981 0.0353712C19.9319 0.0261202 19.9718 0.0152275 20.0199 0C20.0618 0.0787388 20.1064 0.156688 20.1511 0.234778ZM12.3227 9.19655L15.4704 13.5321L12.007 28.1678C10.0096 23.5841 5.97658 14.3609 5.82398 14.1374C5.67138 13.914 10.0929 10.7504 12.3227 9.19655ZM17.0602 13.9078L21.8172 11.4429C23.1141 13.8313 25.6488 18.641 25.4122 18.7724C25.1757 18.9037 17.4367 25.3412 13.5968 28.5436L17.0602 13.9078Z" fill="white"/>
</g>
<defs>
<clipPath id="clip0_15592_51">
<rect width="38" height="39" fill="white"/>
</clipPath>
</defs>
</svg>
