<svg width="34" height="34" viewBox="0 0 34 34" fill="none" xmlns="http://www.w3.org/2000/svg">
<path d="M12.17 5.59117L11.2809 2.45694C11.2635 2.38395 11.2301 2.31576 11.183 2.25734C11.136 2.19893 11.0765 2.15176 11.0089 2.11927C10.9413 2.08678 10.8674 2.06979 10.7924 2.06954C10.7174 2.06929 10.6434 2.08577 10.5756 2.11781C7.27473 3.56342 4.53754 6.05109 2.78232 9.20064C1.0271 12.3502 0.350399 15.9884 0.855622 19.5592C0.864525 19.6335 0.889756 19.705 0.9295 19.7684C0.969244 19.8318 1.02251 19.8856 1.08549 19.926C1.14848 19.9664 1.21961 19.9923 1.29379 20.0019C1.36796 20.0116 1.44335 20.0046 1.51453 19.9816L4.64854 19.0909C4.80316 19.0397 4.93601 18.9378 5.02562 18.8017C5.11523 18.6656 5.15635 18.5032 5.14234 18.3408C4.9189 15.9086 5.43532 13.4656 6.62382 11.3325C7.81232 9.19931 9.61737 7.47566 11.8021 6.38777C11.9427 6.31434 12.0551 6.19637 12.1216 6.05225C12.1882 5.90813 12.2052 5.74598 12.17 5.59117Z" fill="white"/>
<path d="M28.8223 12.2169L31.9563 11.3261C32.0287 11.3078 32.0961 11.2737 32.1539 11.2265C32.2116 11.1792 32.2583 11.1198 32.2906 11.0524C32.323 10.9851 32.3401 10.9114 32.3409 10.8367C32.3416 10.762 32.326 10.6881 32.2951 10.6201C30.8482 7.32287 28.3643 4.58937 25.2217 2.83594C22.0792 1.0825 18.4502 0.405225 14.8875 0.907278C14.813 0.915682 14.7413 0.940626 14.6777 0.980274C14.614 1.01992 14.56 1.07329 14.5196 1.13647C14.4792 1.19966 14.4533 1.27108 14.444 1.34553C14.4346 1.41998 14.442 1.49558 14.4655 1.56683L15.3546 4.70106C15.4048 4.85641 15.5064 4.99003 15.6426 5.07987C15.7788 5.16972 15.9415 5.21043 16.1039 5.19533C18.5338 4.97167 20.9744 5.4886 23.1055 6.67826C25.2366 7.86791 26.9585 9.67469 28.0454 11.8615C28.1201 11.9959 28.2358 12.1029 28.3756 12.1668C28.5153 12.2307 28.6719 12.2483 28.8223 12.2169Z" fill="white"/>
<path d="M23.1057 32.0203L22.2158 28.8832C22.1804 28.7306 22.1958 28.5705 22.2596 28.4274C22.3235 28.2843 22.4324 28.1661 22.5697 28.0907C24.7544 27.0028 26.5594 25.2791 27.7479 23.146C28.9364 21.0128 29.4528 18.5698 29.2294 16.1376C29.2148 15.9751 29.2557 15.8125 29.3454 15.6762C29.4351 15.54 29.5683 15.4383 29.7232 15.3875L32.8713 14.4928C32.9425 14.4703 33.0177 14.4638 33.0917 14.4737C33.1657 14.4835 33.2366 14.5095 33.2994 14.5498C33.3623 14.5901 33.4155 14.6437 33.4554 14.7068C33.4953 14.77 33.5208 14.8411 33.5302 14.9152C34.0344 18.4859 33.3573 22.1237 31.6022 25.273C29.8471 28.4224 27.1105 30.9102 23.8103 32.3566C23.7427 32.3885 23.6689 32.405 23.5942 32.4048C23.5195 32.4047 23.4457 32.3879 23.3783 32.3557C23.3109 32.3235 23.2514 32.2767 23.2043 32.2187C23.1572 32.1607 23.1235 32.0929 23.1057 32.0203Z" fill="white"/>
<path d="M5.55359 22.2598L2.41957 23.1506C2.34694 23.1685 2.27917 23.2022 2.22111 23.2494C2.16305 23.2966 2.11615 23.3561 2.08376 23.4236C2.05138 23.4911 2.03432 23.5649 2.03381 23.6398C2.03329 23.7146 2.04933 23.7886 2.08078 23.8566C3.52567 27.1603 6.0115 29.8996 9.15836 31.6559C12.3052 33.4122 15.94 34.0888 19.5073 33.5823C19.5815 33.5739 19.6529 33.5491 19.7164 33.5097C19.7799 33.4703 19.8338 33.4172 19.8743 33.3544C19.9148 33.2915 19.9408 33.2204 19.9504 33.1463C19.9601 33.0721 19.9531 32.9967 19.9301 32.9256L19.0402 29.7886C18.99 29.6332 18.8884 29.4996 18.7522 29.4097C18.616 29.3199 18.4533 29.2792 18.2909 29.2943C15.861 29.518 13.4204 29.001 11.2893 27.8114C9.15821 26.6217 7.43625 24.8149 6.34941 22.6281C6.2753 22.488 6.15732 22.3761 6.01357 22.3096C5.86982 22.2431 5.70822 22.2256 5.55359 22.2598Z" fill="white"/>
<path fill-rule="evenodd" clip-rule="evenodd" d="M9.51186 12.948C10.6473 10.9102 12.5449 9.40727 14.7873 8.76993C17.0297 8.13258 19.4333 8.41302 21.4691 9.54952C23.505 10.686 25.0065 12.5855 25.6432 14.8301C26.2799 17.0747 25.9998 19.4806 24.8644 21.5184C23.729 23.5562 21.8313 25.0591 19.5889 25.6965C17.3465 26.3338 14.943 26.0534 12.9071 24.9169C10.8712 23.7804 9.36976 21.8809 8.73303 19.6363C8.0963 17.3917 8.37646 14.9859 9.51186 12.948ZM15.0476 21.0751C16.0655 21.6433 17.2673 21.7835 18.3885 21.4648L18.3901 21.4705C18.9458 21.3126 19.4648 21.0466 19.9177 20.6877C20.3705 20.3288 20.7483 19.884 21.0293 19.3789C21.3103 18.8738 21.489 18.3181 21.5553 17.7438C21.6216 17.1694 21.5742 16.5876 21.4156 16.0316C21.0973 14.9093 20.3466 13.9596 19.3286 13.3914C18.3107 12.8231 17.1089 12.6829 15.9877 13.0016C14.8665 13.3202 13.9177 14.0717 13.35 15.0906C12.7823 16.1096 12.6422 17.3125 12.9606 18.4348C13.2789 19.5571 14.0297 20.5068 15.0476 21.0751Z" fill="white"/>
</svg>
