<svg width="37" height="35" viewBox="0 0 37 35" fill="none" xmlns="http://www.w3.org/2000/svg">
<g clip-path="url(#clip0_11066_6769)">
<path d="M18.0787 0.904851C18.2623 0.534026 18.7912 0.534025 18.9748 0.904851L24.0871 11.2287C24.1599 11.3758 24.3002 11.4777 24.4626 11.5016L35.861 13.1734C36.2704 13.2334 36.4338 13.7364 36.1379 14.0257L27.8991 22.078C27.7817 22.1927 27.7281 22.3576 27.7556 22.5194L29.688 33.8765C29.7574 34.2845 29.3295 34.5953 28.963 34.4033L18.7588 29.056C18.6135 28.9798 18.44 28.9798 18.2947 29.056L8.09051 34.4033C7.72399 34.5953 7.29611 34.2845 7.36551 33.8765L9.29782 22.5194C9.32534 22.3576 9.27174 22.1927 9.15439 22.078L0.915573 14.0257C0.619641 13.7364 0.783076 13.2334 1.1925 13.1734L12.5909 11.5016C12.7532 11.4777 12.8936 11.3758 12.9664 11.2287L18.0787 0.904851Z" fill="white"/>
</g>
<defs>
<clipPath id="clip0_11066_6769">
<rect width="37" height="35" fill="white"/>
</clipPath>
</defs>
</svg>
